<?xml version="1.0" encoding="UTF-8" standalone="no"?>
<!-- Created with Inkscape (http://www.inkscape.org/) -->

<svg
   xmlns:dc="http://purl.org/dc/elements/1.1/"
   xmlns:cc="http://creativecommons.org/ns#"
   xmlns:rdf="http://www.w3.org/1999/02/22-rdf-syntax-ns#"
   xmlns:svg="http://www.w3.org/2000/svg"
   xmlns="http://www.w3.org/2000/svg"
   version="1.1"
   width="473.1268"
   height="141.10973"
   viewBox="0 0 133.5269 39.824301"
   id="svg2"
   xml:space="preserve"
   style="fill-rule:evenodd"><metadata
   id="metadata36"><rdf:RDF><cc:Work
       rdf:about=""><dc:format>image/svg+xml</dc:format><dc:type
         rdf:resource="http://purl.org/dc/dcmitype/StillImage" /><dc:title></dc:title></cc:Work></rdf:RDF></metadata>
 <defs
   id="defs4">
  <style
   type="text/css"
   id="style6" />
 </defs>
 <g
   transform="translate(-33.8978,-111.577)"
   id="Camada_x0020_1">
  <metadata
   id="CorelCorpID_0Corel-Layer" />
  <ellipse
   cx="50.037399"
   cy="135.125"
   rx="16.139601"
   ry="16.1397"
   id="ellipse10"
   style="fill:none" />
  <ellipse
   cx="50.037399"
   cy="135.09"
   rx="7.6729002"
   ry="7.9903698"
   id="ellipse12"
   style="fill:none" />
  <path
   d="m 84.5215,118.633 0.1763,9.1722 c -3.7126,-0.1018 -5.5353,1.5445 -5.468,4.9389 l 0,17.8153 -8.6431,0 0,-16.4042 c 0.1768,-9.5135 4.8217,-14.6876 13.9348,-15.5222 z"
   id="path14"
   style="fill:none" />
  <path
   d="m 97.7506,111.577 -8.2903,0 0,38.982 8.1139,0 0,-11.2889 c 6.6893,-0.8618 9.9231,2.9011 9.7014,11.2889 l 8.1139,0 c 0.4281,-10.0606 -3.0997,-16.2342 -9.8778,-17.8153 l 11.1126,-13.2292 -10.0542,0 -8.8195,11.2889 0,-19.2264 z"
   id="path16"
   style="fill:none" />
  <line
   class="fil0"
   x1="120.505"
   y1="119.867"
   x2="120.681"
   y2="139.44701"
   id="line18"
   style="fill:none" />
  <path
   d="m 120.681,139.447 c 1.4675,15.3429 25.9858,16.5243 28.0459,0 l 0.1763,-19.5792 -8.643,-0.1764 0.1764,16.0514 c -0.368,10.1133 -11.4805,9.9369 -11.6417,0 l 0,-16.2278 -8.2903,0.3528"
   id="path20"
   style="fill:none" />
  <path
   d="m 153.49,136.095 -0.1764,-24.1654 8.4666,0 0,7.5847 5.6445,0 0,8.4667 -5.4681,0 0,8.9958 c 0.7804,3.4823 2.5443,5.3638 5.2917,5.6445 l 0.1764,8.4667 c -8.0442,0.304 -14.159,-6.3398 -13.9347,-14.993 z"
   id="path22"
   style="fill:none" />
  <path
   d="m 66.177,135.125 c 0,-8.9139 -7.2259,-16.1397 -16.1395,-16.1397 -8.9138,0 -16.1397,7.2258 -16.1397,16.1397 0,8.9138 7.2259,16.1396 16.1397,16.1396 8.9136,0 16.1395,-7.2258 16.1395,-16.1396 z m -16.1396,-8.0258 c 4.2375,0 7.6729,3.5775 7.6729,7.9903 0,4.4129 -3.4354,7.9904 -7.6729,7.9904 -4.2375,0 -7.6729,-3.5775 -7.6729,-7.9904 0,-4.4128 3.4354,-7.9903 7.6729,-7.9903 z"
   id="path24"
   style="fill:#ed2590" />
  <path
   d="m 84.5215,118.633 c -9.1131,0.8346 -13.758,6.0087 -13.9348,15.5222 l 0,16.4042 8.6431,0 0,-17.8153 c -0.0673,-3.3944 1.7554,-5.0407 5.468,-4.9389 l -0.1763,-9.1722 z"
   id="path26"
   style="fill:#ed2590" />
  <path
   d="m 89.4603,111.577 0,38.982 8.1139,0 0,-11.2889 c 6.6893,-0.8618 9.9231,2.9011 9.7014,11.2889 l 8.1139,0 c 0.4281,-10.0606 -3.0997,-16.2342 -9.8778,-17.8153 l 11.1126,-13.2292 -10.0542,0 -8.8195,11.2889 0,-19.2264 -8.2903,0 z"
   id="path28"
   style="fill:#ed2590" />
  <path
   d="m 120.505,119.867 0.1764,19.5792 c 1.4675,15.3429 25.9858,16.5243 28.0459,0 l 0.1763,-19.5792 -8.643,-0.1764 0.1764,16.0514 c -0.368,10.1133 -11.4805,9.9369 -11.6417,0 l 0,-16.2278 -8.2903,0.3528 z"
   id="path30"
   style="fill:#ed2590" />
  <path
   d="m 153.313,111.93 0.1764,24.1654 c -0.2243,8.6532 5.8905,15.297 13.9347,14.993 l -0.1764,-8.4667 c -2.7474,-0.2807 -4.5113,-2.1622 -5.2917,-5.6445 l 0,-8.9958 5.4681,0 0,-8.4667 -5.6445,0 0,-7.5847 -8.4666,0 z"
   id="path32"
   style="fill:#ed2590" />
 </g>
</svg>